<?xml version="1.0" encoding="utf-8"?>
<!-- Generator: Adobe Illustrator 22.0.1, SVG Export Plug-In . SVG Version: 6.00 Build 0)  -->
<svg version="1.1" id="Calque_1" xmlns="http://www.w3.org/2000/svg" xmlns:xlink="http://www.w3.org/1999/xlink" x="0px" y="0px"
	 viewBox="0 0 32 32.3" style="enable-background:new 0 0 32 32.3;" xml:space="preserve">
<style type="text/css">
	.st0{fill:#181847;stroke:#181847;stroke-width:0.25;stroke-linecap:round;stroke-miterlimit:10;}
</style>
<title>ic_close_48px</title>
<path class="st0" d="M29.7,31.6L0.8,2.7c-0.4-0.4-0.4-1.1,0-1.5l0,0c0.4-0.4,1.1-0.4,1.5,0l28.8,28.8c0.4,0.4,0.4,1.1,0,1.5h0
	C30.8,32,30.1,32,29.7,31.6z"/>
<title>ic_close_48px</title>
<path class="st0" d="M0.8,31.6L0.8,31.6c-0.4-0.4-0.4-1.1,0-1.5L29.7,1.2c0.4-0.4,1.1-0.4,1.5,0l0,0c0.4,0.4,0.4,1.1,0,1.5L2.3,31.6
	C1.9,32,1.3,32,0.8,31.6z"/>
</svg>
