<svg height="448pt" viewBox="0 -72 448 448" width="448pt" xmlns="http://www.w3.org/2000/svg"><path d="m408 24h-368v208h368zm-333.65625 74.34375 40-40c3.140625-3.03125 8.128906-2.988281 11.214844.097656 3.085937 3.085938 3.128906 8.074219.097656 11.214844l-40 40c-3.140625 3.03125-8.128906 2.988281-11.214844-.097656-3.085937-3.085938-3.128906-8.074219-.097656-11.214844zm19.3125 43.3125-8 8c-3.140625 3.03125-8.128906 2.988281-11.214844-.097656-3.085937-3.085938-3.128906-8.074219-.097656-11.214844l8-8c3.140625-3.03125 8.128906-2.988281 11.214844.097656 3.085937 3.085938 3.128906 8.074219.097656 11.214844zm72-72-56 56c-3.140625 3.03125-8.128906 2.988281-11.214844-.097656-3.085937-3.085938-3.128906-8.074219-.097656-11.214844l56-56c3.140625-3.03125 8.128906-2.988281 11.214844.097656 3.085937 3.085938 3.128906 8.074219.097656 11.214844zm0 0"/><path d="m0 296c0 4.417969 3.582031 8 8 8h432c4.417969 0 8-3.582031 8-8v-24h-184v8c0 4.417969-3.582031 8-8 8h-64c-4.417969 0-8-3.582031-8-8v-8h-184zm0 0"/><path d="m16 256h416v-232c0-13.253906-10.746094-24-24-24h-368c-13.253906 0-24 10.746094-24 24zm8-232c0-8.835938 7.164062-16 16-16h368c8.835938 0 16 7.164062 16 16v216c0 4.417969-3.582031 8-8 8h-384c-4.417969 0-8-3.582031-8-8zm0 0"/></svg>