<?xml version="1.0" encoding="utf-8"?>
<!-- Generator: Adobe Illustrator 22.0.1, SVG Export Plug-In . SVG Version: 6.00 Build 0)  -->
<svg version="1.1" id="Calque_1" xmlns="http://www.w3.org/2000/svg" xmlns:xlink="http://www.w3.org/1999/xlink" x="0px" y="0px"
	 viewBox="0 0 841.9 153.2" style="enable-background:new 0 0 841.9 153.2;" xml:space="preserve">
<style type="text/css">
	.st0{fill:#FFFFFF;}
</style>
<path class="st0" d="M327.4,44.4h15.5V73l26.3-28.6h19.2l-27.7,30.8c2.4,3.3,6.8,9.5,13.3,18.6c6.4,9.1,11.3,15.8,14.5,20.3h-18.1
	l-20.4-27.5l-7,7.8V114h-15.5V44.4z"/>
<path class="st0" d="M485.4,113.8h-15.5V94.1l-7-7.8l-20.4,27.5h-18.1c3.2-4.5,8-11.2,14.5-20.3s10.9-15.3,13.3-18.6l-27.7-30.8
	h19.2l26.3,28.6V44.1h15.5V113.8z"/>
<path class="st0" d="M17.5,43.8H33v28.6l26.3-28.6h19.2L50.9,74.6c2.4,3.3,6.8,9.5,13.3,18.6c6.4,9.1,11.3,15.8,14.5,20.3H60.5
	L40,85.9l-7,7.8v19.7H17.5V43.8z"/>
<path class="st0" d="M137,43.8h15.5v69.7H137l-33.2-43.7v43.7H88.3V43.8h14.6L137,88.6V43.8z"/>
<path class="st0" d="M228.3,103.8c-7,6.9-15.7,10.3-26,10.3c-10.3,0-19-3.4-26-10.3c-7-6.9-10.6-15.4-10.6-25.7s3.5-18.8,10.6-25.7
	c7-6.9,15.7-10.3,26-10.3c10.3,0,19,3.4,26,10.3c7,6.9,10.6,15.4,10.6,25.7S235.3,97,228.3,103.8z M223,78.2c0-6.2-2-11.5-6-15.9
	c-4-4.4-8.9-6.6-14.7-6.6c-5.8,0-10.7,2.2-14.7,6.6c-4,4.4-6,9.7-6,15.9c0,6.2,2,11.5,6,15.8c4,4.4,8.9,6.5,14.7,6.5
	c5.8,0,10.7-2.2,14.7-6.5C221,89.7,223,84.4,223,78.2z"/>
<path class="st0" d="M284,99.7c7.6,0,13.9-3,18.7-9.1l10,10.3c-7.9,8.9-17.2,13.4-28,13.4c-10.7,0-19.6-3.4-26.5-10.2
	c-6.9-6.8-10.4-15.3-10.4-25.7c0-10.3,3.5-19,10.6-25.9c7.1-6.9,15.7-10.4,26-10.4c11.4,0,21,4.4,28.7,13.1l-9.7,11
	c-4.9-6.1-11-9.2-18.3-9.2c-5.8,0-10.8,1.9-15,5.7s-6.2,9-6.2,15.4c0,6.5,2,11.7,5.9,15.6C273.7,97.7,278.4,99.7,284,99.7z"/>
<path class="st0" d="M671.1,88.6l34.2-44.9h14.6v69.7h-15.5V69.8l-33.2,43.7h-15.5V43.8h15.5V88.6z"/>
<path class="st0" d="M569.3,78.2c0-10.2,3.5-18.8,10.6-25.7s15.7-10.3,26-10.3c10.3,0,19,3.4,26,10.3c7,6.9,10.6,15.4,10.6,25.7
	s-3.5,18.8-10.6,25.7c-7,6.9-15.7,10.3-26,10.3c-10.3,0-19-3.4-26-10.3C572.8,97,569.3,88.4,569.3,78.2z M591.1,94.1
	c4,4.4,8.9,6.5,14.7,6.5c5.8,0,10.7-2.2,14.7-6.5c4-4.4,6-9.6,6-15.8c0-6.2-2-11.5-6-15.9c-4-4.4-8.9-6.6-14.7-6.6
	c-5.8,0-10.7,2.2-14.7,6.6c-4,4.4-6,9.7-6,15.9C585.1,84.4,587.1,89.7,591.1,94.1z"/>
<path class="st0" d="M538.4,93.8c3.9-3.9,5.9-9.1,5.9-15.6c0-6.5-2.1-11.6-6.2-15.4s-9.2-5.7-15-5.7c-7.3,0-13.4,3.1-18.3,9.2
	l-9.7-11c7.7-8.7,17.3-13.1,28.7-13.1c10.2,0,18.9,3.5,26,10.4s10.6,15.5,10.6,25.9c0,10.3-3.5,18.9-10.4,25.7
	c-6.9,6.8-15.8,10.2-26.5,10.2c-10.7,0-20-4.5-28-13.4l10-10.3c4.9,6,11.1,9.1,18.7,9.1C529.7,99.7,534.5,97.7,538.4,93.8z"/>
<path class="st0" d="M521.6,62.5c-8.1,0-14.7,6.2-15.4,14.1H300.8c-1-7.6-7.4-13.6-15.4-13.6c-8.6,0-15.6,7-15.6,15.6
	s7,15.6,15.6,15.6c6.9,0,12.6-4.5,14.7-10.6h207c2.2,5.9,7.9,10.1,14.5,10.1c8.6,0,15.6-7,15.6-15.6S530.2,62.5,521.6,62.5z"/>
<path class="st0" d="M790,113.7h-15.6V93.9l-7-7.8l-20.5,27.7h-18.2c3.2-4.5,8.1-11.3,14.5-20.4c6.5-9.1,10.9-15.3,13.3-18.7
	l-27.9-31h19.3l26.5,28.8V43.7H790V113.7z"/>
</svg>
