<?xml version="1.0" encoding="utf-8"?>
<!-- Generator: Adobe Illustrator 22.0.1, SVG Export Plug-In . SVG Version: 6.00 Build 0)  -->
<svg version="1.1" id="Capa_1" xmlns="http://www.w3.org/2000/svg" xmlns:xlink="http://www.w3.org/1999/xlink" x="0px" y="0px"
	 viewBox="0 0 402.8 302.5" style="enable-background:new 0 0 402.8 302.5;" xml:space="preserve">
<style type="text/css">
	.st0{fill:#181847;}
	.st1{fill:#FFFFFF;}
</style>
<circle class="st0" cx="219.6" cy="157.2" r="148.7"/>
<g>
	<g>
		<path class="st1" d="M148.4,163.3h80c3.3,0,6.1-2.7,6.1-6c0-3.3-2.7-6.1-6.1-6.1h-80l11.7-11.7c2.3-2.4,2.3-6.2,0-8.6
			c-1.1-1.1-2.7-1.8-4.3-1.8s-3.1,0.6-4.3,1.8l-21.9,21.9c-0.6,0.6-1,1.2-1.4,2c-0.3,0.7-0.4,1.5-0.4,2.3c0,0.8,0.1,1.5,0.5,2.3
			c0.3,0.8,0.8,1.4,1.3,2l22,22c1.1,1.1,2.7,1.8,4.3,1.8c1.6,0,3.1-0.6,4.3-1.8c2.3-2.4,2.3-6.2,0-8.6L148.4,163.3z"/>
		<path class="st1" d="M264.7,103.1h-68c-11.1,0-20.2,9-20.2,20.2l0,3.3c0.1,3.3,2.8,5.9,6,5.9c2,0,3.7-1,4.9-2.5l1.2-3.6v-3.1
			c0-4.4,3.6-8.1,8.1-8.1h68c4.4,0,8.1,3.6,8.1,8.1v68c0,4.4-3.6,8.1-8.1,8.1h-68c-4.4,0-8.1-3.6-8.1-8.1l0-6.1l-1.2-3.5
			c-1.1-1.5-2.9-2.4-4.9-2.4c-3.3,0-5.9,2.6-6,6.1v6c0,11.1,9,20.2,20.2,20.2h68c11.1,0,20.2-9,20.2-20.2v-68
			C284.8,112.1,275.8,103.1,264.7,103.1z"/>
	</g>
</g>
</svg>
