<?xml version="1.0" encoding="utf-8"?>
<!-- Generator: Adobe Illustrator 22.0.1, SVG Export Plug-In . SVG Version: 6.00 Build 0)  -->
<svg version="1.1" id="Calque_1" xmlns="http://www.w3.org/2000/svg" xmlns:xlink="http://www.w3.org/1999/xlink" x="0px" y="0px"
	 viewBox="0 0 380 400" style="enable-background:new 0 0 380 400;" xml:space="preserve">
<style type="text/css">
	.st0{opacity:0.1;fill:#624ED8;}
	.st1{opacity:0.82;}
	.st2{fill:#B28B67;}
	.st3{fill:#191847;}
	.st4{fill:#C5CFD6;}
	.st5{fill-opacity:0.1;}
	.st6{fill:#624ED8;}
	.st7{fill:#E4E4E4;}
	.st8{fill:#997659;}
	.st9{fill:#837DA5;}
	.st10{fill:#FF7F5D;}
	.st11{fill:#DDE3E9;}
	.st12{fill:#FFFFFF;fill-opacity:0.2;}
	.st13{opacity:0.82;fill:#C9C5E2;}
</style>
<path class="st0" d="M364,124.5c41.2,30.5,27,107-85,109s-42,122-184,137s-126.5-121.9-74-156c57-37,138,2,173-33
	S314,87.5,364,124.5z"/>
<title>humaaans/sitting-2</title>
<desc>Created with Sketch.</desc>
<g id="humaaans_x2F_sitting-2" class="st1">
	
		<g id="A-Human_x2F_Sitting" transform="translate(190.000000, 200.500000) scale(-1, 1) translate(-190.000000, -200.500000) translate(40.000000, 24.000000)">
		<g id="Head_x2F_Front_x2F_Rad" transform="translate(82.000000, 0.000000)">
			<g id="Head" transform="translate(54.000000, 31.000000)">
				<path class="st2" d="M-82.7,7.9c-2.5-2.9-4.1-6.4-3.8-10.4c0.8-11.4,16.7-8.9,19.8-3.1c3.1,5.8,2.7,20.4-1.3,21.4
					c-1.6,0.4-5-0.6-8.4-2.7l2.2,15.4h-12.8L-82.7,7.9z"/>
			</g>
			<path id="hair" class="st3" d="M-38.1,24.7c-0.4-0.4-0.6-1-0.8-1.6c-0.2-0.6-0.4-1.2-0.5-1.8c-0.3-1.2-0.3-2.6,0.6-3.5
				c0.7-0.7,1.7-1.1,2.7-1.2c0.6,0,1.3,0,1.9,0.2c0.6,0.2,1.1,0.6,1.7,0.8c0-1.3,0.2-2.6,0.9-3.8c0.6-1.1,1.6-1.7,2.8-1.8
				c1.2-0.2,2.3,0.1,3.4,0.7c0.3,0.1,0.5,0.3,0.8,0.5c0.2,0.1,0.4,0.3,0.7,0.4c0.3,0.1,0.4-0.1,0.6-0.3c0.2-0.2,0.4-0.4,0.7-0.6
				c1.1-0.8,2.5-1.1,3.8-0.7c0.6,0.2,1.2,0.6,1.6,1.1c0.4,0.5,0.6,1.2,1.1,1.5c0.2,0.1,0.4,0,0.5-0.2c0.3-0.2,0.6-0.4,0.8-0.6
				c0.4-0.3,0.8-0.5,1.3-0.6c0.7-0.2,1.6-0.1,1.8,0.8c0.1,0.3,0,0.7,0,1c0,0.5-0.1,0.9-0.1,1.4c0,0.4-0.1,0.7-0.1,1
				c0,0.2-0.1,0.5-0.1,0.7c0.1,0.2,0.6,0.1,0.8,0.1c0.4,0,0.8,0.1,1.1,0.2c0.3,0.1,0.6,0.3,0.7,0.6c0.1,0.2,0.1,0.4,0,0.6
				c0,0.2,0,0.4,0,0.6c0.5-0.3,2.3-0.8,2.5,0.1c0.1,0.3-0.1,0.7-0.2,0.9c-0.2,0.5-0.5,0.9-0.8,1.3c-0.6,0.8-1.4,1.6-2.2,2.2
				c1,0.4,1.2,1.7,0.4,2.5c-0.4,0.3-0.9,0.4-1.3,0.4c-0.2,0-0.4-0.1-0.6,0c-0.1,0-0.1,0.1-0.2,0.1c-0.7,0-1.4-0.1-2-0.3
				c-1.1-0.3-2.2-0.8-3.1-1.6c-0.2-0.2-0.4-0.3-0.7-0.3c-0.3,0-0.5,0.1-0.8,0.1c-0.7,0-1.3-0.3-2-0.6c0,0.9-0.3,1.9-0.7,2.7
				c-0.3,0.7-0.9,0.7-1.5,0.8c-1.9,0.2-3.9,0-5.9,0c1.9,0.4,3.8,0.6,5.7,1.1c0.8,0.2,0.2,0.8-0.2,1.2c-0.6,0.7-1,1.5-1.3,2.3
				c-0.9-1.2-2.6-2-4-1.6c-1.6,0.4-2.7,2.6-1.7,4.1c0.6,0.9,1.7,1.3,2.6,1.6c-0.7,0.7-0.9,1.8-1.3,2.7c-0.2,0.4-0.5,0.9-1,1.1
				c-0.2,0.1-0.4,0.1-0.5,0.2c-0.2,0.2-0.2,0.4-0.4,0.5c-0.9,0.6-2.2,0.5-2.9-0.2c-0.7-0.7-0.5-1.8,0.1-2.5
				c-0.9-0.4-2.6-0.9-2.2-2.3c-2-0.1-6.7-3.3-4.1-5.6c-1.4-0.8-2.8-2.8-1.8-4.6C-41.1,25.4-39.5,24.7-38.1,24.7"/>
		</g>
		<g id="Bottom_x2F_Sitting_x2F_Skinny-Jeans-1" transform="translate(0.000000, 187.000000)">
			<g id="Objects_x2F_Seat_x2F_Cube" transform="translate(10.000000, 42.000000)">
				<g id="Seat" transform="translate(55.000000, 0.000000)">
					<polygon id="Seat-Stuff" class="st4" points="-39.3,-102.8 2,-102.8 7.4,-36.6 -54,-36.6 					"/>
					<polygon id="Seat-Stuff_1_" class="st5" points="-39.3,-102.8 -26.6,-102.8 -19,-36.6 -54,-36.6 					"/>
				</g>
			</g>
			<path id="Skin" class="st2" d="M114-72.2c4.4-2.6,11.8,0.8,11.8,4.5c0,11.3-10.3,64.6-10.9,67.9c-0.5,3.4-6.3,4.3-6.6,0
				c-0.5-6.8-1.5-30.1-0.5-41c0.4-4.5,0.9-8.7,1.3-12.5c-5.4,9.8-13.8,23.8-25.1,42L77.8-14c4.8-15.9,8.8-27.1,11.9-33.7
				c5.3-11.2,10.3-20.8,12.3-24.2C105.3-77.3,111-75.4,114-72.2z"/>
			<path id="LegLower" class="st6" d="M78.2-22.9l21.1-50c5.1-8.1,19.2,1.7,17.5,6.4c-3.9,10.7-23.8,45.4-25,48.6L78.2-22.9z"/>
			
				<g id="Accessories_x2F_Shoe_x2F_Flat-Sneaker" transform="translate(215.500000, 133.000000) rotate(30.000000) translate(-215.500000, -133.000000) translate(185.000000, 113.000000)">
				<path id="shoe" class="st7" d="M-164.5-40.8c-0.6,1.6-0.9,2.8-0.9,3.6c0,1,0.2,2.4,0.5,4.2c1.1,0,11.2,0,30.1,0
					c0.8-2.6,0.3-4-1.4-4.2c-1.7-0.2-3.1-0.4-4.2-0.6l-14-6.2c-0.3-0.1-0.6,0-0.7,0.3c0,0,0,0,0,0l-0.9,2.2
					c-1.6,0.7-2.8,1.1-3.8,1.1c-0.8,0-1.9-0.3-3.3-1v0C-163.6-41.7-164.2-41.4-164.5-40.8C-164.5-40.9-164.5-40.9-164.5-40.8z"/>
			</g>
			<g id="Accessories_x2F_Shoe_x2F_Flat-Sneaker_1_" transform="translate(242.000000, 126.000000)">
				<path id="shoe_1_" class="st7" d="M-135.1-128.4c-0.6,1.6-0.9,2.8-0.9,3.6c0,1,0.2,2.4,0.5,4.2c1.1,0,11.2,0,30.1,0
					c0.8-2.6,0.3-4-1.4-4.2c-1.7-0.2-3.1-0.4-4.2-0.6l-14-6.2c-0.3-0.1-0.6,0-0.7,0.3c0,0,0,0,0,0l-0.9,2.2
					c-1.6,0.7-2.8,1.1-3.8,1.1c-0.8,0-1.9-0.3-3.3-1l0,0C-134.2-129.3-134.8-129-135.1-128.4C-135.1-128.5-135.1-128.4-135.1-128.4z
					"/>
			</g>
			<path id="Leg-and-Butt" class="st6" d="M127.3-63.8c0,14.2-6.7,47.3-6.7,50.4l-14.5,0c2.1-29.5,2.9-44.4,2.3-44.8
				c-0.9-0.5-37.9,3.7-49,3.7c-16,0-22.6-10.1-23.2-28.8h31.7c6.5,0.7,40.1,7.5,52.6,9.8C125.8-72.4,127.3-67.7,127.3-63.8z"/>
		</g>
		<g id="Body_x2F_Pointing-Forward" transform="translate(22.000000, 82.000000)">
			<path id="Skin_1_" class="st8" d="M50.7-11.5l18.5-10.1c3.1-3.7,6.1-6.5,9.1-8.5c0.9-0.4,2.5-0.6,1,2c-1.5,2.7-2.9,5.5-2.2,6.3
				c0.8,0.8,2.7-0.3,3.6,1c0.6,0.9-2.6,2.3-9.7,4.3L57.6-4.2L50.7-11.5z M79.8-3l8.1-4.5C89-11.8,90.4-14,92-14
				c1.2-0.6-0.9,4.9,1.4,4.4s8-4.7,8.9-3.8c1.4,1.3,0.2,5.1-1.4,7.1C98.2-2.7,95.8-1.5,90,0.1c-3,0.8-6.3,2.5-9.8,5.1L79.8-3z"/>
			<path id="Sleeve" class="st6" d="M41.7-13.8c6.5-0.1,15.1-1.4,24.4-7.3l3.6,8.1C63.4-6.7,54.4-1.5,46.6-1.7
				C40.4-1.9,37.2-9.3,41.7-13.8z"/>
			<path id="Clothes" class="st9" d="M50.5-0.8c6.9,1.7,18.4-0.3,34.7-6.1c4,8.3,5.9,14.3,5.6,17.8C76.8,18.2,64.9,21.4,55,21.6
				c0.3,5.8-0.4,11.4-2.8,16.4C47.4,48.5,18.7,38.9,9,40.8c-6-19.6,5.6-27.6,5.7-40.2c0-13.8,11.1-34.9,12.7-34.9h14.8
				C43-23.8,47.1-12.2,50.5-0.8z"/>
		</g>
	</g>
</g>
<g id="humaaans_x2F_sitting-4" class="st1">
	
		<g id="A-Human_x2F_Sitting_1_" transform="translate(190.000000, 200.500000) scale(-1, 1) translate(-190.000000, -200.500000) translate(40.000000, 24.000000)">
		<g id="Head_x2F_Front_x2F_Curly" transform="translate(82.000000, 0.000000)">
			<g id="Head_1_" transform="translate(54.000000, 31.000000)">
				<path class="st2" d="M114.8,74.1H95.1l3.3-23.6c-5.3,3.2-10.5,4.8-13,4.1c-6.2-1.6-6.7-24.1-2-33c4.8-8.9,29.2-12.7,30.5,4.8
					c0.4,6.1-2.1,11.5-5.9,16L114.8,74.1z"/>
			</g>
			<path id="hair_1_" class="st3" d="M129.9,45.6c0.5,0.8,1.2,1.5,1.9,2.1c-0.5,0.3-1,0.6-1.4,1.1c-0.3,0.5-0.4,1-0.3,1.6
				c0.1,0.7,0.3,1.4,0.6,2.1c0.3,0.6,0.7,1.1,1.2,1.6c-0.5,0.1-0.8,0.4-1.1,0.9c-0.1,0.2-0.2,0.5-0.2,0.7c-0.1,0.3-0.2,0.6-0.2,0.9
				c-0.1,0.5,0,1,0.2,1.5c0.2,0.4,1,1.2,1.7,1.4s2.8,0.1,3.1-0.2c0.6-0.7,0.9-1.8,1.2-2.7c0.5-1.2,1.1-2.2,1.8-3.2
				c0.7-1,1.6-2,2.7-2.7c0.2-0.1,0.6-0.5,0.8-0.4c0.2,0.1,0.3,0.4,0.4,0.5c0.1,0.2,0.3,0.4,0.5,0.5c0.8,0.7,1.7,1.2,2.7,1.5
				c1,0.3,2,0.6,3,1.2c0.8,0.5,1.4,1.3,1.7,2.2c0.3,0.9,0.5,1.9,0.8,2.8c0.3,1.2,0.8,2.4,1.4,3.5c0.3,0.5,0.6,1,1,1.4
				c0.3,0.2,0.8,0.7,1.2,0.4c0.2-0.1,0.1-0.3,0.2-0.5c0.1-0.3,1.6-3.3,3-3.6c1.3-0.3,4.5-0.3,5.6,0.3c2.3,1.3,2.6,4,1.9,6.3
				c-0.3,1-0.8,2.1-1.6,2.9c-0.3,0.3-0.8,0.7-1.2,0.9c-0.5,0.1-1.1,0.3-1.6,0.2c0,0.3,0.1,0.5,0.1,0.8c0,0.3-0.1,0.6-0.1,0.9
				c0,0.6,0.1,1.2,0.4,1.7c0.1,0.3,0.3,0.6,0.3,0.9c0,0.2,0,0.5,0,0.7c0.1,0.4,0.2,0.9,0.4,1.3c0.9,1.6,3.5,2.1,4.7,0.6
				c0.9,1.8,2.5,3.2,4.5,3.7c1.6,0.4,3.8,0.5,4.9-1c0.4,0.4,0.9,0.7,1.4,1c2,1,4.5,1.1,6.3-0.2c1-0.6,1.7-1.6,2-2.7
				c0.4-1.2,0.3-2.5,0.1-3.7c0-0.1-0.1-0.4,0-0.5c0.1-0.1,0.2-0.1,0.3-0.2c0.2-0.1,0.5-0.2,0.7-0.4c0.4-0.3,0.8-0.7,1-1.2
				c0.6-1.1,0.6-2.4,0.4-3.6c-0.1-0.6-0.3-1.2-0.5-1.8c-0.1-0.3-0.2-0.6-0.3-0.9c-0.1-0.3-0.3-0.6-0.4-0.9c-0.1-0.2,0-0.1,0.1-0.2
				c0-0.1,0.1-0.1,0.2-0.2c0.1-0.1,0.2-0.2,0.3-0.3c0.2-0.2,0.3-0.4,0.4-0.6c0.2-0.4,0.4-0.9,0.5-1.4c0.2-1,0.1-2.1-0.1-3.1
				c-0.1-0.6-0.3-1.2-0.6-1.8c-0.1-0.2-0.2-0.4-0.3-0.5c-0.1-0.2,0-0.2,0.1-0.3c0.2-0.3,0.3-0.5,0.4-0.8c0.7-1.7,0.7-3.7,0.1-5.4
				c-0.6-1.7-1.7-3.1-3.3-3.9c-0.4-0.2-0.8-0.4-1.3-0.5c-0.2-0.1-0.5-0.1-0.7-0.1c-0.1,0-0.3,0-0.3,0c0,0,0-0.3-0.1-0.3
				c-0.2-1-0.6-1.9-1.3-2.7c-0.6-0.7-1.5-1.3-2.4-1.6c-0.2-0.1-0.3-0.1-0.4-0.2c-0.1-0.1-0.1-0.3-0.2-0.4c-0.1-0.3-0.3-0.5-0.4-0.8
				c-0.3-0.5-0.7-1-1.1-1.5c-0.8-0.9-1.8-1.7-2.9-2.1c-0.6-0.2-1.2-0.2-1.9-0.1c-0.1,0-1.3,0.5-1.3,0.6c0-0.1-0.2-0.2-0.3-0.3
				c-0.2-0.2-0.3-0.4-0.4-0.6c-0.3-0.4-0.7-0.8-1.2-1c-0.9-0.6-2-1-3.1-1.2c-1.1-0.2-2.2-0.1-3.2,0.3c-0.2,0.1-0.6,0.3-0.8,0.3
				c-0.2,0-0.6-0.3-0.8-0.4c-0.5-0.2-1-0.4-1.6-0.4c-0.9-0.1-1.8,0.1-2.6,0.6c-0.2,0.1-0.2,0.1-0.3-0.1c-0.1-0.1-0.2-0.2-0.3-0.3
				c-0.2-0.2-0.3-0.3-0.5-0.5c-0.3-0.3-0.6-0.6-1-0.8c-1.6-1.2-3.5-1.3-5.5-1.3c-1.7,0-3.5,0.4-4.9,1.5c-0.1,0.1-0.4,0.4-0.5,0.5
				c-0.1,0-0.5-0.3-0.7-0.4c-0.4-0.2-0.8-0.4-1.3-0.5c-0.9-0.3-1.7-0.4-2.6-0.4c-1.6,0.1-3.2,0.9-4.4,2.1c-0.6,0.6-1.1,1.3-1.5,2.2
				c-0.1,0.2-0.2,0.5-0.2,0.7c0,0.1,0,0.2-0.1,0.3c-0.1,0.1-0.1,0.1-0.2,0c-0.4,0-0.7,0-1.1,0.1c-1.5,0.4-2.6,1.6-3,3
				C128.2,42.1,128.9,44.1,129.9,45.6z"/>
		</g>
		<g id="Bottom_x2F_Sitting_x2F_Sweat-Pants" transform="translate(0.000000, 187.000000)">
			<g id="Objects_x2F_Seat_x2F_Cube-2" transform="translate(10.000000, 42.000000)">
				<path id="Seat_1_" class="st4" d="M309-8.1v75.6c0,7.3-5.9,13.1-13.1,13.1h-94.5c-7.3,0-13.1-5.9-13.1-13.1V-8.1
					c0-7.3,5.9-13.1,13.1-13.1h94.5C303.1-21.2,309-15.3,309-8.1z M214.5,1.8c-1.8,0-3.3,1.5-3.3,3.3v49.3c0,1.8,1.5,3.3,3.3,3.3
					h68.2c1.8,0,3.3-1.5,3.3-3.3V5.1c0-1.8-1.5-3.3-3.3-3.3H214.5z"/>
			</g>
			<path id="Skin_3_" class="st2" d="M129.5,117c8.8-53.6,16-89.1,20.2-99.9c2.8-7.1,23.6-6.3,21.2,8.1c-1,6-5,22.1-10.2,40.5
				c-3.1,10.7-10.7,31-21.2,54.3L129.5,117z M258.6,56.6c-3.7-0.5-46.9-5-77.3-9.4c-12.2-1.8-5.7-24.7,7-22.2
				c4.3,0.8,8.8,1.7,13.5,2.7c16.3,3.4,50.1,15.3,59.8,19.1C267.7,49.2,263.7,57.4,258.6,56.6z"/>
			<path id="Leg-Back" class="st10" d="M180.4,21.4C181,54,157.5,73,150.1,100.2L131,97.3c2-5,8-72.3,18-86.1c0,0,0-0.1,0.1-0.1
				c0,0,0-0.1,0-0.1c1.1-3.6,26.9-11.9,77.5-24.8h6.2v5.8l-52.2,26.6C180.6,19.5,180.5,20.4,180.4,21.4z"/>
			<path id="Leg-Front" class="st10" d="M244.2,39.9l-4.9,15.3c-10.5-2.8-42,5.9-81.8-10.6c-0.2-0.1-0.4-0.3-0.4-0.6
				c-7.4-5.3-11.5-25.5,1.5-31.1c19.7-8.5,57.8-24.4,65.1-26.5h44.8c4.2,28.4-2.9,41.4-27.2,45.7c-3.8,0.7-8.2,1.5-12.9,2.5
				L244.2,39.9z"/>
			
				<g id="Accessories_x2F_Shoe_x2F_Flat-Sneaker_3_" transform="translate(143.959294, 93.331820) rotate(64.000000) translate(-143.959294, -93.331820) translate(113.459294, 73.331820)">
				<path id="shoe_3_" class="st7" d="M36.6-104.1c-0.4,0.8-0.1,1.8,0.7,2.2l0,0c2.1,1.1,3.5,2.1,4.3,3.1c0.9,1.2,1.7,3.1,2.3,5.6
					L42-90c0,0,0,0,0,0c-0.2,0.4-0.1,0.9,0.3,1.1l20.8,11.1c1.3,1.2,2.8,2.7,4.7,4.6c1.8,1.8,4,1.1,6.4-2.3
					c-18-23-27.5-35.2-28.5-36.5c-2.5,1.4-4.4,2.5-5.6,3.4c-1,0.7-2.1,2.2-3.5,4.5C36.6-104.2,36.6-104.1,36.6-104.1z"/>
			</g>
			<g id="Accessories_x2F_Shoe_x2F_Flat-Sneaker_2_" transform="translate(263.000000, 132.000000)">
				<path id="shoe_2_" class="st7" d="M-118.8-16.5c-0.4-0.8-1.4-1.2-2.2-0.8v0c-2.1,1-3.8,1.5-5.1,1.5c-1.5,0-3.5-0.6-5.9-1.7
					l-1.4-3.4c0,0,0,0,0,0c-0.2-0.4-0.7-0.6-1.1-0.4l-21.5,9.6c-1.7,0.3-3.9,0.5-6.5,0.9c-2.6,0.3-3.3,2.5-2.1,6.4
					c29.2,0,44.6,0,46.3,0c0.5-2.8,0.7-5,0.7-6.5c0-1.2-0.5-3.1-1.4-5.5C-118.7-16.4-118.8-16.5-118.8-16.5z"/>
			</g>
		</g>
		<g id="Body_x2F_Jacket" transform="translate(22.000000, 82.000000)">
			<path id="Skin_2_" class="st2" d="M170.8,91.6l-24.2,14.3c-6.1,9.6-9.6,13.7-10.7,12.4c-1.6-1.9,0.9-4.2,0.1-5.7
				c-0.9-1.5-5.7-0.6-10.3,0.4c-4.6,1-3.5-1.2-2.5-2.4c4.3-3.5,9.9-6.7,16.6-9.6L163,78.3L170.8,91.6z M277,133.9
				c1.2,2.4,9.9,9.6,15.9,13.8c2.4,1.7,1.4,3.8,0.5,4.4c-7.5,4.6-12.4-0.8-18.8-3.8c-7.1-3.3-6.5,6-12.1,3.5
				c1.7-3.9,5.7-11,3.8-15.7c-0.8-2.1-6.6-20.3-17.2-54.5l17.2-0.1C271.8,113.2,275.4,130.7,277,133.9z"/>
			<path id="Coat-Back" class="st9" d="M169.4,119.5l-23-28c30.5-25,51.8-52.7,64.1-83.3l7.1,1.2C218.7,47.2,199.9,83.9,169.4,119.5
				z"/>
			<path id="Shirt" class="st11" d="M226.3,5l-19.1,2.8c0,24.9-7.3,55.2-22,90.8h63.3C245.6,58.8,241.3,29.2,226.3,5z"/>
			<path id="Coat-Front" class="st9" d="M226.8,5c29.1,28.5,45.9,68.7,50.5,120.8h-30.8c0.2-3.4,0.4-6.8,0.5-10.2h-41.5
				c5.2-48.7,8.1-81.1,8.5-97.1l4.6-13.2c3-0.1,5.3-0.2,6.8-0.3H226.8C226.7,5,226.7,5,226.8,5C226.7,5,226.8,5,226.8,5z"/>
			<path id="Shade" class="st5" d="M247,115.9h-11.6c4.7-7.9,7.7-22.4,8.9-43.4C246.6,86.4,247.5,100.9,247,115.9z"/>
			<polygon id="Light" class="st12" points="217.3,90.5 217.3,81 237.8,90.5 			"/>
		</g>
	</g>
</g>
<path class="st13" d="M255.6,54.9h-86.7c-7.8,0-14.1-6.3-14.1-14.1v-9.2c0-7.8,6.3-14.1,14.1-14.1h72.6c7.8,0,14.1,6.3,14.1,14.1
	V54.9z"/>
</svg>
