<?xml version="1.0" encoding="utf-8"?>
<!-- Generator: Adobe Illustrator 22.0.1, SVG Export Plug-In . SVG Version: 6.00 Build 0)  -->
<svg version="1.1" id="Calque_1" xmlns="http://www.w3.org/2000/svg" xmlns:xlink="http://www.w3.org/1999/xlink" x="0px" y="0px"
	 viewBox="0 0 278 433" style="enable-background:new 0 0 278 433;" xml:space="preserve">
<style type="text/css">
	.st0{fill:#B28B67;}
	.st1{fill:#191847;}
	.st2{fill:#837DA5;}
	.st3{fill:#E4E4E4;}
	.st4{fill:#FF7F5D;}
	.st5{fill:#FBEDEC;}
	.st6{fill-opacity:0.1;}
</style>
<title>humaaans/standing-19</title>
<desc>Created with Sketch.</desc>
<g id="Head_x2F_Front_x2F_Short-Beard" transform="translate(133.219486, 73.532869) rotate(-15.000000) translate(-133.219486, -73.532869) translate(59.569689, 17.301852)">
	<g id="Head" transform="translate(58.494090, 33.282773)">
		<path class="st0" d="M4.2-10.8c-5-5.8-8.4-12.9-7.8-20.9c1.6-23,33.9-17.9,40.2-6.3S42.1,3,34,5c-3.2,0.8-10.1-1.2-17.1-5.4
			l4.4,30.9l-26,0L4.2-10.8z"/>
	</g>
	<path id="Hair" class="st1" d="M76.6,4.1c1,13.7,3.6,20.6,7.9,20.6c6.4,0,11.8-4,14.6-4c2,0,1.6,2.5,0.2,4.4
		c-1.1,1.6-6.6,3.1-6.6,5.5s4.3,0.5,4.3,2c0,2.4,0.8,6.8-3.4,6.8c-4.2,0-16.2-1.5-18.3-7.7c-1.3-4-2.2-12.2-2.6-24.7
		c-0.3,0-0.5,0-0.8,0c-3.6,0-6.5,2.9-6.5,6.4c0,1.8,0.7,3.4,2,4.6c-1.5,2.1-3.2,4.3-5.1,6.6c-7.3-4.3-12.6-16.9-5.5-29.1
		c2-5.9,6.4-9.1,11.6-10.6c4.2-1.8,8.7-2,12.4-0.9c7.3,0.6,13.8,2.8,15.7,4.1c0,6.8-1.3,8.9-12.8,8.7C81-1.8,78.9,0.8,76.6,4.1z"/>
</g>
<polygon id="Leg" class="st2" points="128.2,173.4 181.3,307.5 217,420.8 231.1,420.8 176.5,173.4 "/>
<path id="Leg_1_" class="st0" d="M117.4,173.4c-0.6,47.1-8.8,110.5-10.1,113.5c-0.9,2-31.2,26.9-91.1,74.7l9.7,10.3
	c70.6-41,107.5-64.2,110.8-69.7c4.9-8.2,20.9-83.7,33.7-128.8H117.4z"/>
<g id="Accessories_x2F_Shoe_x2F_Flat-Sneaker" transform="translate(55.786030, 203.938854) rotate(50.000000) translate(-55.786030, -203.938854) translate(22.747702, 182.358023)">
	<path id="shoe" class="st3" d="M124.8,152c-1.2,3.2-1.8,5.7-1.8,7.3c0,2,0.3,4.8,1,8.6c2.3,0,22.6,0,61.1,0
		c1.6-5.2,0.7-8.1-2.7-8.5c-3.4-0.4-6.3-0.8-8.5-1.1l-28.4-12.7c-0.5-0.2-1.2,0-1.4,0.5c0,0,0,0,0,0l-1.8,4.4
		c-3.2,1.5-5.7,2.2-7.7,2.2c-1.6,0-3.8-0.6-6.7-1.9l0,0c-1.1-0.5-2.4,0-2.9,1.1C124.9,151.9,124.9,152,124.8,152z"/>
</g>
<g id="Accessories_x2F_Shoe_x2F_Flat-Sneaker_1_" transform="translate(225.310568, 214.729269)">
	<path id="shoe_1_" class="st3" d="M-14.1,201c-1.2,3.2-1.8,5.7-1.8,7.3c0,2,0.3,4.8,1,8.6c2.3,0,22.6,0,61.1,0
		c1.6-5.2,0.7-8.1-2.7-8.5s-6.3-0.8-8.5-1.1L6.5,194.5c-0.5-0.2-1.2,0-1.4,0.5c0,0,0,0,0,0l-1.8,4.4c-3.2,1.5-5.7,2.2-7.7,2.2
		c-1.6,0-3.8-0.6-6.7-1.9l0,0c-1.1-0.5-2.4,0-2.9,1.1C-14.1,200.9-14.1,200.9-14.1,201z"/>
</g>
<polygon id="Pant" class="st2" points="163.9,409.1 230.8,401.9 181.2,173.4 121.3,173.4 "/>
<path id="Pant_1_" class="st2" d="M30.1,344.9L74,396.7c46.3-50.3,73.2-83.2,80.9-98.5c7.7-15.3,14.6-56.9,20.7-124.7h-67.5
	c-3.3,59.7-5.6,90.9-6.8,93.6S76.4,295.8,30.1,344.9z"/>
<path id="Skin" class="st0" d="M211.1,148.6l38.4,18.9c9.7,0.9,17.9,2.6,24.8,5.2c1.7,1.1,3.9,3.4-2.2,4c-6.1,0.6-12.6,1.5-13.1,3.7
	c-0.5,2.2,3.6,4,2.4,7.1c-0.8,2.1-6.9-1.7-18.4-11.1l-36.1-8L211.1,148.6z M80.6,172.5l22.3-3.8c-6,46.6-9.3,71.4-9.9,74.3
	c-1.4,6.5,5.5,14.9,8.6,19.5c-6.7,4.5-8-7.6-16.5-1.7c-7.7,5.4-12.8,13.5-23.6,9.3c-1.3-0.5-3.1-3-0.3-5.7
	c6.9-6.7,16.6-18.1,17.5-21.5C80.1,238.1,80.7,214.7,80.6,172.5z"/>
<path id="Coat-Back" class="st4" d="M127.5,68.2l8.9-3.2c39.4,23.4,63.4,77.4,110.7,100l-7.9,14.2
	C164.9,183.1,134.7,117.3,127.5,68.2z"/>
<path id="Shirt" class="st5" d="M107.6,190.7c37-6.5,64.2-11.3,81.6-14.4c3.7-0.7,2.1-5.9,1.1-8.5c-11.7-30.1-41.9-59.5-49.8-103.9
	l-24.2,0.5C102.4,99,102.4,138.5,107.6,190.7z"/>
<path id="Coat-Front" class="st4" d="M92.4,100.2c-3.6-0.4-6.7-2.2-9.3-5.4c-11.3-13.9-9.7-23-1-27.4s17.9-0.1,32.6-2.7
	c0.8-0.1,1.5-0.2,2.2-0.2l7.4-0.9c33.7,67.6,47.9,114.1,42.7,139.7l-64.2,11.3c-2.2,9.5-4.6,17.6-7,24.2l-17.5,3.1
	C67.2,189.1,71.9,141.9,92.4,100.2z"/>
<path id="Shade" class="st6" d="M110.2,175.4c5,16.5,10.4,28.1,16.3,34.9l-23.8,4.2C105.3,203.4,107.8,190.4,110.2,175.4z"/>
<rect x="372.3" y="455.5" style="fill:none;" width="1.9" height="3.3"/>
<rect x="431.1" y="455.5" style="fill:none;" width="1.9" height="3.3"/>
</svg>
