<?xml version="1.0" encoding="utf-8"?>
<!-- Generator: Adobe Illustrator 22.0.1, SVG Export Plug-In . SVG Version: 6.00 Build 0)  -->
<svg version="1.1" id="Calque_1" xmlns="http://www.w3.org/2000/svg" xmlns:xlink="http://www.w3.org/1999/xlink" x="0px" y="0px"
	 viewBox="0 0 841.9 595.3" style="enable-background:new 0 0 841.9 595.3;" xml:space="preserve">
<style type="text/css">
	.st0{opacity:5.000000e-02;fill:#624ED8;enable-background:new    ;}
	.st1{opacity:0.21;fill:#837DA5;enable-background:new    ;}
	.st2{opacity:8.000000e-02;fill:#837DA5;enable-background:new    ;}
	.st3{fill:#FF7F5D;fill-opacity:3.000000e-02;}
	.st4{fill:#FF7F5D;}
</style>
<path class="st0" d="M385.8-3.5c0,0-306.3,386.2,259.7,384.5c565.9-1.7,637.5,243,637.5,243v-875.5L385.8-3.5z"/>
<path class="st1" d="M700.9,265.5c-3.3,3.2-7.3,4.8-12.2,4.8c-4.8,0-8.9-1.6-12.2-4.8c-3.3-3.2-4.9-7.2-4.9-12c0-4.8,1.6-8.8,4.9-12
	c3.3-3.2,7.3-4.8,12.2-4.8c4.8,0,8.9,1.6,12.2,4.8s4.9,7.2,4.9,12C705.8,258.3,704.2,262.3,700.9,265.5z M698.5,253.5
	c0-2.9-0.9-5.4-2.8-7.4c-1.9-2.1-4.2-3.1-6.9-3.1s-5,1-6.9,3.1s-2.8,4.5-2.8,7.4c0,2.9,0.9,5.4,2.8,7.4c1.9,2,4.2,3.1,6.9,3.1
	s5-1,6.9-3.1C697.5,258.9,698.5,256.4,698.5,253.5z"/>
<path class="st2" d="M631.5,513.2c-6.9,6.7-15.4,10.1-25.4,10.1c-10.1,0-18.5-3.4-25.4-10.1c-6.9-6.7-10.3-15-10.3-25
	s3.4-18.4,10.3-25.1c6.9-6.7,15.3-10.1,25.4-10.1c10.1,0,18.5,3.4,25.4,10.1s10.3,15.1,10.3,25.1S638.4,506.5,631.5,513.2z
	 M626.4,488.2c0-6.1-1.9-11.2-5.8-15.5c-3.9-4.3-8.7-6.4-14.4-6.4s-10.5,2.1-14.4,6.4s-5.8,9.5-5.8,15.5c0,6.1,1.9,11.2,5.8,15.5
	c3.9,4.3,8.7,6.4,14.4,6.4s10.5-2.1,14.4-6.4S626.4,494.3,626.4,488.2z"/>
<path class="st2" d="M712.4,617.9c-5.9,5.8-13.2,8.7-21.8,8.7c-8.7,0-15.9-2.9-21.8-8.7c-5.9-5.8-8.8-12.9-8.8-21.5
	s2.9-15.8,8.8-21.5c5.9-5.8,13.1-8.7,21.8-8.7s15.9,2.9,21.8,8.7c5.9,5.8,8.8,13,8.8,21.5C721.3,605.1,718.3,612.2,712.4,617.9z
	 M708,596.5c0-5.2-1.6-9.6-5-13.3c-3.3-3.7-7.5-5.5-12.4-5.5s-9,1.8-12.4,5.5c-3.3,3.7-5,8.2-5,13.3c0,5.2,1.6,9.6,5,13.3
	c3.3,3.7,7.5,5.5,12.4,5.5s9-1.8,12.4-5.5S708,601.7,708,596.5z"/>
<path class="st3" d="M-6.9,217.6c0,0,194.5,71.4,251.2,221.6S86.7,695.3,86.7,695.3L-21.7,589.4L-6.9,217.6z"/>
<path class="st4" d="M-339.3-48.4"/>
</svg>
