<svg version="1.1" xmlns="http://www.w3.org/2000/svg" xmlns:xlink="http://www.w3.org/1999/xlink" x="0px" y="0px" viewBox="0 0 24 24" xml:space="preserve" width="24" height="24"><title>link 72</title><g class="nc-icon-wrapper" stroke-linecap="square" stroke-linejoin="miter" stroke-width="2" fill="#ffffff" stroke="#ffffff"><path data-color="color-2" fill="none" stroke-miterlimit="10" d="M13.4,10.6 L13.4,10.6c2,2,2,5.1,0,7.1l-2.8,2.8c-2,2-5.1,2-7.1,0l0,0c-2-2-2-5.1,0-7.1L6,11"/> <path fill="none" stroke="#ffffff" stroke-miterlimit="10" d="M10.6,13.4L10.6,13.4 c-2-2-2-5.1,0-7.1l2.8-2.8c2-2,5.1-2,7.1,0l0,0c2,2,2,5.1,0,7.1L18,13"/></g></svg>